<svg xmlns="http://www.w3.org/2000/svg" width="172" height="29" viewBox="0 0 172 29" fill="#0069ff"><title>DigitalOcean</title><g fill-rule="evenodd"><path d="M14.4942 29v-5.5674c5.9572 0 10.5633-5.8478 8.2892-12.059-.8425-2.3006-2.693-4.1355-5.0126-4.9706-6.262-2.2534-12.1564 2.3135-12.1573 8.2207 0 0-.0006.0014-.0014.0014H0C0 5.2123 9.1687-2.1167 19.1138.9624c4.3459 1.3457 7.7993 4.7708 9.1561 9.081C31.3742 19.9068 23.985 29 14.4942 29"></path><path d="M14.507 23.4468H8.9103v-5.549s.0005-.0011.0011-.0011h5.5949c.0006 0 .0009.0006.0009.0006v5.5495M8.9093 27.7118H4.6105l-.0012-.0012v-4.2638h4.3009v4.2638l-.0009.0012M4.6125 23.4468H1.0088c-.0015 0-.0026-.0012-.0026-.0012v-3.5724s.0011-.0025.0026-.0025h3.601c.0015 0 .0027.0011.0027.0011v3.575"></path></g></svg>
